<svg xmlns="http://www.w3.org/2000/svg" viewBox="0 0 1024 1024">
  <title>white</title>
  <path d="M799.746,619.866a330.91,330.91,0,0,1-106.121,35.277v496.844a268.128,268.128,0,0,0,76.614-27.044L1126.75,933.6c16.954-9.25,25.25-26.159,25.25-44.463V431.057Z" transform="translate(-128 -128)" style="fill: #fff"/>
  <path d="M484.639,619.875l-79.08-42.381v280.1L302.678,802.375V522.357L128,428.741v460.4a48.065,48.065,0,0,0,1.918,13.438A50.222,50.222,0,0,0,139.4,920.43a53.3,53.3,0,0,0,7.493,7.448l367.175,197.065A268.133,268.133,0,0,0,590.744,1152V655.143A330.917,330.917,0,0,1,484.639,619.875Z" transform="translate(-128 -128)" style="fill: #fff"/>
  <path d="M822.362,187.841,770.306,159.9a269.533,269.533,0,0,0-99.123-30.379,275.755,275.755,0,0,0-33.5-1.486A270.9,270.9,0,0,0,514.13,159.9L173.4,342.776,353.541,439.46Z" transform="translate(-128 -128)" style="fill: #fff"/>
  <path d="M1110.972,342.74l-185.73-99.682L456.421,494.676l57.642,30.937c79.261,42.539,176.914,42.54,256.175,0Z" transform="translate(-128 -128)" style="fill: #fff"/>
</svg>
