<svg xmlns="http://www.w3.org/2000/svg" viewBox="0 0 896 180.762">
  <title>white</title>
  <g>
    <path d="M940.448,122.06H960v117.8H940.448Z" transform="translate(-64 -101.619)" style="fill: #fff"/>
    <path d="M895.437,122.06h19.552v117.8H895.437Z" transform="translate(-64 -101.619)" style="fill: #fff"/>
    <path d="M806.761,230.9q-10.105-10.914-10.1-33.89t10.182-33.888Q817.024,152.2,837.717,152.2q18.9,0,28.269,10.592t9.368,33.074v5.866H816.536q.489,12.708,5.458,18.655t15.886,5.947q8.147,0,13.2-4.155t5.05-12.3h19.226q0,15.806-10.428,23.869t-27.209,8.065Q816.86,241.813,806.761,230.9Zm48.226-43.014q0-20.2-17.27-20.2-9.775,0-14.745,4.969t-6.11,15.233Z" transform="translate(-64 -101.619)" style="fill: #fff"/>
    <path d="M664.808,154.158h20.2L695.6,193.912q1.465,5.215,5.05,23.135h.815q3.422-17.268,4.887-22.973l9.614-39.916h21.018l10.265,40.08q1.464,6.354,4.887,22.809h.815q3.258-15.312,5.051-22.809l10.265-40.08h18.736l-25.58,85.7H740.9l-10.59-44.48q-1.63-6.678-3.91-18.411h-.815q-1.954,11.571-3.585,18.249L711.08,239.858H690.551Z" transform="translate(-64 -101.619)" style="fill: #fff"/>
    <path d="M579.443,230.9q-10.1-10.914-10.1-33.89t10.1-33.888q10.1-10.915,30.794-10.918,18.735,0,28.024,10.184t9.287,32.342v6.517H586.613q.648,13.85,6.272,20.448t17.515,6.6q9.288,0,14.989-4.4t5.7-13.523h16.456q0,15.317-10.346,23.38t-26.965,8.065Q589.545,241.813,579.443,230.9Zm50.672-42.362q0-22.807-19.878-22.811-11.082,0-16.618,5.46t-6.681,17.351Z" transform="translate(-64 -101.619)" style="fill: #fff"/>
    <path d="M477.519,230.815q-8.8-11-8.8-33.808,0-22.483,8.8-33.644T501.468,152.2q17.757,0,25.906,11.732h.978V122.06h16.782v117.8H531.773l-1.629-11.4H529a26.623,26.623,0,0,1-11,9.938,34.268,34.268,0,0,1-15.4,3.422Q486.314,241.813,477.519,230.815ZM523.3,220.144q5.049-7.493,5.051-22.159v-1.3q0-30.306-21.018-30.3-11.57,0-16.456,6.924t-4.888,23.217v1.467q0,15.97,4.888,22.81t16.456,6.844Q518.247,227.639,523.3,220.144Z" transform="translate(-64 -101.619)" style="fill: #fff"/>
    <path d="M377.4,230.815q-10.184-11-10.184-33.808T377.4,163.2q10.18-11,30.549-11t30.632,11q10.263,11,10.264,33.807t-10.264,33.808q-10.266,11-30.632,11T377.4,230.815Zm48.553-10.1q5.622-7.248,5.622-22.892v-1.629q0-15.641-5.622-22.892t-18-7.25q-12.219,0-17.841,7.25t-5.621,22.892v1.629q0,15.642,5.621,22.892t17.841,7.25Q420.327,227.964,425.951,220.714Z" transform="translate(-64 -101.619)" style="fill: #fff"/>
    <path d="M272.132,154.158h13.523l1.63,11.4h1.141a29.566,29.566,0,0,1,11.812-9.939,37.916,37.916,0,0,1,16.375-3.422q27.207,0,27.209,29.49v58.167H327.039V183.81q0-9.611-4.316-13.441t-12.627-3.83a20.646,20.646,0,0,0-18.33,10.917,24.729,24.729,0,0,0-2.852,12.056v50.346H272.132Z" transform="translate(-64 -101.619)" style="fill: #fff"/>
  </g>
  <g>
    <path d="M182.58,188.446a58.429,58.429,0,0,1-18.733,6.227v87.706a47.356,47.356,0,0,0,13.524-4.774l62.934-33.777a8.642,8.642,0,0,0,4.457-7.849V155.116Z" transform="translate(-64 -101.619)" style="fill: #fff"/>
    <path d="M126.956,188.447,113,180.966V230.41l-18.161-9.747v-49.43L64,154.708v81.271a8.491,8.491,0,0,0,.339,2.373,8.842,8.842,0,0,0,1.673,3.151,9.392,9.392,0,0,0,1.322,1.315l64.816,34.787a47.344,47.344,0,0,0,13.536,4.776V194.673A58.386,58.386,0,0,1,126.956,188.447Z" transform="translate(-64 -101.619)" style="fill: #fff"/>
    <g>
      <path d="M186.572,112.182l-9.189-4.931a47.56,47.56,0,0,0-17.5-5.363,48.467,48.467,0,0,0-5.913-.262,47.8,47.8,0,0,0-21.811,5.625L72.014,139.532l31.8,17.068Z" transform="translate(-64 -101.619)" style="fill: #fff"/>
      <path d="M204.733,121.93l-82.758,44.417,10.175,5.461a48.2,48.2,0,0,0,45.221,0h0l60.148-32.282Z" transform="translate(-64 -101.619)" style="fill: #fff"/>
    </g>
  </g>
</svg>
