<svg xmlns="http://www.w3.org/2000/svg" xmlns:xlink="http://www.w3.org/1999/xlink" viewBox="0 0 896 24">
  <defs>
    <linearGradient id="linear-gradient" x1="80.691" y1="9.895" x2="104.794" y2="9.895" gradientUnits="userSpaceOnUse">
      <stop offset="0.005"/>
      <stop offset="0.192" stop-color="#171717"/>
      <stop offset="0.541" stop-color="#3c3c3c"/>
      <stop offset="0.823" stop-color="#545454"/>
      <stop offset="1" stop-color="#5c5c5c"/>
    </linearGradient>
    <linearGradient id="linear-gradient-2" x1="144.691" y1="133.822" x2="168.794" y2="133.822" xlink:href="#linear-gradient"/>
    <linearGradient id="linear-gradient-3" x1="136.229" y1="128.811" x2="209.503" y2="128.811" xlink:href="#linear-gradient"/>
    <linearGradient id="linear-gradient-4" x1="144.525" y1="132.41" x2="169.388" y2="132.41" gradientUnits="userSpaceOnUse">
      <stop offset="0" stop-color="#5c5c5c"/>
      <stop offset="0.177" stop-color="#545454"/>
      <stop offset="0.459" stop-color="#3c3c3c"/>
      <stop offset="0.808" stop-color="#171717"/>
      <stop offset="0.995"/>
    </linearGradient>
    <linearGradient id="linear-gradient-5" x1="152.673" y1="121.537" x2="168.703" y2="109.693" gradientUnits="userSpaceOnUse">
      <stop offset="0.138" stop-color="#3f873f"/>
      <stop offset="0.397" stop-color="#529f44"/>
      <stop offset="0.711" stop-color="#63b649"/>
      <stop offset="0.908" stop-color="#6abf4b"/>
    </linearGradient>
    <linearGradient id="linear-gradient-6" x1="89.86" y1="11.394" x2="116.106" y2="-7.999" xlink:href="#linear-gradient-5"/>
    <linearGradient id="linear-gradient-7" x1="144.601" y1="119.65" x2="164.362" y2="119.65" gradientUnits="userSpaceOnUse">
      <stop offset="0.092" stop-color="#6abf4b"/>
      <stop offset="0.289" stop-color="#63b649"/>
      <stop offset="0.603" stop-color="#529f44"/>
      <stop offset="0.862" stop-color="#3f873f"/>
    </linearGradient>
    <linearGradient id="linear-gradient-8" x1="152.433" y1="121.204" x2="168.223" y2="109.538" xlink:href="#linear-gradient-5"/>
    <linearGradient id="linear-gradient-9" x1="144.601" y1="118.812" x2="164.362" y2="118.812" xlink:href="#linear-gradient-7"/>
    <linearGradient id="linear-gradient-10" x1="153.605" y1="127.041" x2="179.584" y2="107.846" xlink:href="#linear-gradient-5"/>
    <linearGradient id="linear-gradient-11" x1="151.54" y1="123.24" x2="166.454" y2="123.24" xlink:href="#linear-gradient-7"/>
  </defs>
  <title>divider</title>
  <g>
    <g>
      <path d="M261.058,118.714h2.6v15.64h-2.6Z" transform="translate(-64 -116)" style="fill: #69b247"/>
      <path d="M255.082,118.714h2.6v15.64h-2.6Z" transform="translate(-64 -116)" style="fill: #69b247"/>
      <path d="M243.309,133.164a8.189,8.189,0,0,1,.01-9,5.349,5.349,0,0,1,4.1-1.449,4.753,4.753,0,0,1,3.753,1.406,6.506,6.506,0,0,1,1.244,4.391v.779h-7.809a4.076,4.076,0,0,0,.724,2.477,2.6,2.6,0,0,0,2.109.79,2.672,2.672,0,0,0,1.753-.552,2,2,0,0,0,.67-1.633h2.553a3.76,3.76,0,0,1-1.385,3.169,5.738,5.738,0,0,1-3.612,1.071A5.336,5.336,0,0,1,243.309,133.164Zm6.4-5.711q0-2.682-2.293-2.682a2.655,2.655,0,0,0-1.958.66,3.288,3.288,0,0,0-.811,2.022Z" transform="translate(-64 -116)" style="fill: #69b247"/>
      <path d="M224.461,122.976h2.683l1.406,5.278q.195.693.67,3.072h.109q.454-2.293.649-3.051l1.276-5.3h2.791l1.362,5.321q.195.845.649,3.029h.108q.434-2.034.671-3.029l1.363-5.321h2.488l-3.4,11.378h-2.725l-1.406-5.905q-.217-.888-.52-2.445h-.108q-.26,1.536-.476,2.423l-1.449,5.927h-2.726Z" transform="translate(-64 -116)" style="fill: #69b247"/>
      <path d="M213.127,133.164a8.219,8.219,0,0,1,0-9,5.311,5.311,0,0,1,4.089-1.449,4.792,4.792,0,0,1,3.721,1.352,6.247,6.247,0,0,1,1.233,4.294v.865h-8.091a4.46,4.46,0,0,0,.833,2.715,2.891,2.891,0,0,0,2.326.876,3.166,3.166,0,0,0,1.99-.584,2.125,2.125,0,0,0,.757-1.8h2.185a3.7,3.7,0,0,1-1.374,3.1,5.656,5.656,0,0,1-3.58,1.071A5.308,5.308,0,0,1,213.127,133.164Zm6.728-5.624q0-3.029-2.639-3.029a3.027,3.027,0,0,0-2.207.725,3.639,3.639,0,0,0-.887,2.3Z" transform="translate(-64 -116)" style="fill: #424242"/>
      <path d="M199.6,133.154a9.161,9.161,0,0,1,0-8.956,3.83,3.83,0,0,1,3.18-1.482,3.891,3.891,0,0,1,3.439,1.558h.13v-5.56h2.228v15.64H206.8l-.216-1.514h-.152a3.524,3.524,0,0,1-1.46,1.319,4.549,4.549,0,0,1-2.044.455A4.019,4.019,0,0,1,199.6,133.154Zm6.078-1.417a5.284,5.284,0,0,0,.671-2.942v-.173q0-4.025-2.791-4.024a2.49,2.49,0,0,0-2.185.919,5.528,5.528,0,0,0-.649,3.083v.195a5.367,5.367,0,0,0,.649,3.028,2.5,2.5,0,0,0,2.185.909A2.374,2.374,0,0,0,205.673,131.737Z" transform="translate(-64 -116)" style="fill: #424242"/>
      <path d="M186.3,133.154a8.123,8.123,0,0,1,0-8.978,6.379,6.379,0,0,1,8.123,0,8.079,8.079,0,0,1,0,8.978,6.379,6.379,0,0,1-8.123,0Zm6.446-1.342a4.964,4.964,0,0,0,.746-3.039v-.216a4.969,4.969,0,0,0-.746-3.04,3.424,3.424,0,0,0-4.759,0,4.968,4.968,0,0,0-.747,3.04v.216a4.963,4.963,0,0,0,.747,3.039,3.421,3.421,0,0,0,4.759,0Z" transform="translate(-64 -116)" style="fill: #424242"/>
      <path d="M172.325,122.976h1.8l.216,1.514h.152a3.92,3.92,0,0,1,1.568-1.32,5.031,5.031,0,0,1,2.174-.454q3.612,0,3.613,3.915v7.723h-2.229v-7.441a2.3,2.3,0,0,0-.573-1.785,2.452,2.452,0,0,0-1.676-.508,2.74,2.74,0,0,0-2.434,1.449,3.289,3.289,0,0,0-.379,1.6v6.684h-2.228Z" transform="translate(-64 -116)" style="fill: #424242"/>
    </g>
    <g>
      <g>
        <polygon points="102.932 8.046 99.658 9.801 100.887 11.745 102.932 8.046" style="fill: url(#linear-gradient)"/>
        <path d="M168.1,134.881a1.147,1.147,0,0,0,.592-1.042v-.045l-3.765-6.151-.055,0-6.923,11.718V140a6.309,6.309,0,0,0,1.8-.634Z" transform="translate(-64 -116)" style="fill: url(#linear-gradient-2)"/>
        <path d="M163.658,125.8l-3.223,1.727a7.758,7.758,0,0,1-2.487.827v11.058l6.95-11.694Z" transform="translate(-64 -116)" style="fill: #8c8c8c"/>
        <polygon points="104.691 17.794 104.691 7.103 102.932 8.046 100.887 11.72 104.691 17.794" style="fill: #4e4e4e"/>
      </g>
      <g>
        <path d="M155.537,140v-1.715l-4.34-7.351V133.1l-2.412-1.294v-3.319l-3.827,6.086a1.259,1.259,0,0,0,.176.174l8.606,4.619A6.3,6.3,0,0,0,155.537,140Z" transform="translate(-64 -116)" style="fill: #8c8c8c"/>
        <path d="M144.691,123.049v10.79a1.142,1.142,0,0,0,.045.315,1.185,1.185,0,0,0,.222.419l3.827-6.086v-3.244Z" transform="translate(-64 -116)" style="fill: url(#linear-gradient-3)"/>
        <path d="M155.537,128.355a7.758,7.758,0,0,1-2.487-.827l-1.853-.993v4.4l4.34,7.351Z" transform="translate(-64 -116)" style="fill: url(#linear-gradient-4)"/>
      </g>
      <g>
        <path d="M157.422,116.036l1.538,2.443,2-1.076-1.22-.655A6.3,6.3,0,0,0,157.422,116.036Z" transform="translate(-64 -116)" style="fill: url(#linear-gradient-5)"/>
        <polygon points="88.389 8.594 96.178 4.413 98.378 7.905 95.744 9.319 95.744 9.319 103.73 5.033 99.377 2.697 88.389 8.594" style="fill: url(#linear-gradient-6)"/>
        <path d="M156.637,116a6.337,6.337,0,0,0-2.9.747l-7.986,4.286,2.21,1.186,2.012,1.08,8.983-4.821-5.858,3.144Z" transform="translate(-64 -116)" style="fill: url(#linear-gradient-7)"/>
        <path d="M156.637,116l-3.535,5.622,5.858-3.144-1.538-2.443A6.435,6.435,0,0,0,156.637,116Z" transform="translate(-64 -116)" style="fill: url(#linear-gradient-8)"/>
        <path d="M156.637,116l-3.535,5.622,5.858-3.144-1.538-2.443A6.435,6.435,0,0,0,156.637,116Z" transform="translate(-64 -116)" style="fill: url(#linear-gradient-9)"/>
        <path d="M160.178,120.413l-7.789,4.181,1.351.725a6.4,6.4,0,0,0,6,0l2.634-1.414Z" transform="translate(-64 -116)" style="fill: url(#linear-gradient-10)"/>
        <path d="M160.178,120.413l-7.789,4.181,1.351.725a6.4,6.4,0,0,0,6,0l2.634-1.414Z" transform="translate(-64 -116)" style="fill: url(#linear-gradient-11)"/>
      </g>
    </g>
  </g>
  <rect x="204" y="12" width="692" height="1" style="fill: #69b247"/>
  <rect y="12" width="75" height="1" style="fill: #424242"/>
</svg>
