<svg xmlns="http://www.w3.org/2000/svg" viewBox="0 0 706.519 384">
  <title>black</title>
  <g>
    <path d="M845.177,325H865.26V445.992H845.177Z" transform="translate(-158.74 -64)"/>
    <path d="M798.946,325h20.083V445.992H798.946Z" transform="translate(-158.74 -64)"/>
    <path d="M707.866,436.788q-10.38-11.211-10.375-34.809t10.458-34.807q10.457-11.211,31.712-11.214,19.412,0,29.035,10.879t9.623,33.971v6.025H717.906q.5,13.053,5.606,19.161t16.317,6.108q8.365,0,13.555-4.268t5.187-12.634h19.748q0,16.233-10.711,24.516T739.661,448Q718.238,448,707.866,436.788ZM757.4,392.607q0-20.747-17.739-20.75-10.041,0-15.144,5.1t-6.277,15.646Z" transform="translate(-158.74 -64)"/>
    <path d="M562.064,357.968h20.75L593.693,398.8q1.5,5.356,5.186,23.763h.837q3.516-17.736,5.02-23.6l9.875-41H636.2l10.543,41.167q1.5,6.526,5.02,23.428h.837q3.345-15.728,5.188-23.428l10.543-41.167h19.244L661.3,445.992H640.214l-10.877-45.686q-1.674-6.859-4.016-18.91h-.836q-2.009,11.883-3.683,18.743L609.59,445.992H588.5Z" transform="translate(-158.74 -64)"/>
    <path d="M474.384,436.788q-10.377-11.211-10.375-34.809t10.375-34.807q10.374-11.211,31.629-11.214,19.242,0,28.784,10.46t9.538,33.219v6.694H481.748q.666,14.225,6.442,21t17.99,6.777q9.54,0,15.4-4.518t5.857-13.89h16.9q0,15.732-10.626,24.014T506.013,448Q484.758,448,474.384,436.788Zm52.046-43.51q0-23.429-20.417-23.43-11.383,0-17.069,5.607t-6.862,17.823Z" transform="translate(-158.74 -64)"/>
    <path d="M369.7,436.7q-9.038-11.3-9.038-34.725,0-23.092,9.038-34.556t24.6-11.465q18.237,0,26.608,12.05h1V325h17.236V445.992H425.421l-1.673-11.714h-1.171a27.353,27.353,0,0,1-11.3,10.207A35.2,35.2,0,0,1,395.466,448Q378.731,448,369.7,436.7Zm47.024-10.961q5.184-7.695,5.188-22.759v-1.339q0-31.128-21.588-31.127-11.885,0-16.9,7.112t-5.02,23.847v1.507q0,16.4,5.02,23.428t16.9,7.029Q411.528,433.441,416.72,425.743Z" transform="translate(-158.74 -64)"/>
    <path d="M266.86,436.7q-10.46-11.3-10.46-34.725t10.46-34.724q10.458-11.3,31.378-11.3t31.462,11.3q10.542,11.3,10.543,34.724T329.7,436.7Q319.155,448,298.238,448T266.86,436.7Zm49.87-10.375q5.774-7.445,5.774-23.513v-1.673q0-16.065-5.774-23.513t-18.492-7.446q-12.552,0-18.325,7.446t-5.774,23.513v1.673q0,16.067,5.774,23.513t18.325,7.447Q310.953,433.776,316.73,426.329Z" transform="translate(-158.74 -64)"/>
    <path d="M158.74,357.968h13.89l1.673,11.714h1.173a30.35,30.35,0,0,1,12.132-10.209,38.945,38.945,0,0,1,16.819-3.515q27.945,0,27.947,30.29v59.744H215.136V388.424q0-9.871-4.433-13.8t-12.97-3.934A21.207,21.207,0,0,0,178.906,381.9a25.393,25.393,0,0,0-2.929,12.383v51.711H158.74Z" transform="translate(-158.74 -64)"/>
  </g>
  <g>
    <path d="M544.6,164.391a67.548,67.548,0,0,1-21.659,7.2V273a54.7,54.7,0,0,0,15.637-5.519l72.764-39.054a9.989,9.989,0,0,0,5.154-9.074v-93.5Z" transform="translate(-158.74 -64)"/>
    <path d="M480.291,164.393l-16.141-8.651v57.169l-21-11.27V144.489L407.5,125.382V219.35a9.84,9.84,0,0,0,.391,2.743,10.243,10.243,0,0,0,1.935,3.643,10.878,10.878,0,0,0,1.529,1.52L486.3,267.478A54.724,54.724,0,0,0,501.947,273V171.591A67.551,67.551,0,0,1,480.291,164.393Z" transform="translate(-158.74 -64)"/>
    <g>
      <path d="M549.22,76.214l-10.624-5.7a55.017,55.017,0,0,0-20.231-6.2,56.168,56.168,0,0,0-6.837-.3,55.281,55.281,0,0,0-25.218,6.5l-69.544,37.325,36.767,19.733Z" transform="translate(-158.74 -64)"/>
      <path d="M570.218,87.483l-95.687,51.356,11.765,6.314a55.731,55.731,0,0,0,52.286,0h0l69.544-37.324Z" transform="translate(-158.74 -64)"/>
    </g>
  </g>
</svg>
