<svg xmlns="http://www.w3.org/2000/svg" viewBox="0 0 896 155.987">
  <title>color</title>
  <g>
    <path d="M934.531,114.006H960V267.447H934.531Z" transform="translate(-64 -114.006)" style="fill: #69b247"/>
    <path d="M875.9,114.006H901.37V267.447H875.9Z" transform="translate(-64 -114.006)" style="fill: #69b247"/>
    <path d="M760.394,255.775q-13.162-14.217-13.157-44.144T760.5,167.488q13.262-14.219,40.217-14.22,24.618,0,36.822,13.8t12.2,43.081v7.641H773.128q.636,16.553,7.109,24.3t20.693,7.746q10.61,0,17.19-5.412T824.7,228.4h25.045q0,20.588-13.584,31.091t-35.442,10.506Q773.548,269.994,760.394,255.775Zm62.819-56.03q0-26.311-22.5-26.314-12.734,0-19.206,6.472t-7.959,19.842Z" transform="translate(-64 -114.006)" style="fill: #69b247"/>
    <path d="M575.491,155.816H601.8L615.6,207.6q1.908,6.793,6.578,30.135h1.061q4.458-22.493,6.366-29.924l12.523-51.994h27.377l13.371,52.207q1.908,8.279,6.366,29.711h1.061q4.245-19.946,6.58-29.711l13.37-52.207h24.406l-33.32,111.631H674.6l-13.8-57.939q-2.122-8.7-5.092-23.981h-1.061Q652.1,200.6,649.981,209.3l-14.218,58.15H609.022Z" transform="translate(-64 -114.006)" style="fill: #69b247"/>
    <path d="M464.3,255.775q-13.161-14.217-13.158-44.144T464.3,167.488q13.156-14.219,40.111-14.22,24.4,0,36.5,13.264t12.1,42.128v8.489H473.634q.846,18.04,8.171,26.635t22.815,8.595q12.1,0,19.524-5.73t7.428-17.615h21.435q0,19.952-13.476,30.454t-35.124,10.506Q477.453,269.994,464.3,255.775Zm66-55.18q0-29.709-25.892-29.713-14.436,0-21.647,7.111t-8.7,22.6Z" transform="translate(-64 -114.006)" style="fill: #424242"/>
    <path d="M331.531,255.668q-11.462-14.325-11.461-44.037,0-29.287,11.461-43.825t31.2-14.538q23.128,0,33.744,15.281h1.274V114.006h21.859V267.447H402.2l-2.123-14.855h-1.485a34.675,34.675,0,0,1-14.326,12.944,44.644,44.644,0,0,1-20.055,4.458Q342.99,269.994,331.531,255.668Zm59.635-13.9q6.576-9.761,6.58-28.863v-1.7q0-39.476-27.378-39.475-15.07,0-21.435,9.019t-6.367,30.243v1.911q0,20.8,6.367,29.711t21.435,8.915Q384.584,251.531,391.166,241.768Z" transform="translate(-64 -114.006)" style="fill: #424242"/>
    <path d="M201.116,255.668q-13.265-14.325-13.265-44.037t13.265-44.037q13.263-14.326,39.793-14.326t39.9,14.326q13.369,14.325,13.37,44.037t-13.37,44.037q-13.373,14.325-39.9,14.326T201.116,255.668Zm63.245-13.158q7.322-9.439,7.322-29.818v-2.123q0-20.371-7.322-29.818t-23.452-9.443q-15.916,0-23.239,9.443t-7.322,29.818v2.123q0,20.375,7.322,29.818t23.239,9.445Q257.036,251.955,264.361,242.51Z" transform="translate(-64 -114.006)" style="fill: #424242"/>
    <path d="M64,155.816H81.615l2.122,14.855h1.487a38.495,38.495,0,0,1,15.385-12.946,49.4,49.4,0,0,1,21.33-4.457q35.441,0,35.443,38.413v75.766H135.52V194.44q0-12.519-5.622-17.508t-16.448-4.988a26.892,26.892,0,0,0-23.876,14.22,32.214,32.214,0,0,0-3.715,15.7v65.579H64Z" transform="translate(-64 -114.006)" style="fill: #424242"/>
  </g>
</svg>
